<svg xmlns="http://www.w3.org/2000/svg" version="1.1" xmlns:xlink="http://www.w3.org/1999/xlink" xmlns:svgjs="http://svgjs.dev/svgjs" width="2000" height="1999" viewBox="0 0 2000 1999"><g transform="matrix(1,0,0,1,-0.431486880466764,-0.4312711370263287)"><svg viewBox="0 0 343 343" data-background-color="#ffffff" preserveAspectRatio="xMidYMid meet" height="1999" width="2000" xmlns="http://www.w3.org/2000/svg" xmlns:xlink="http://www.w3.org/1999/xlink"><g id="tight-bounds" transform="matrix(1,0,0,1,0.0740000000000407,0.07400000000001228)"><svg viewBox="0 0 342.85155851775386 342.85155851775386" height="342.85155851775386" width="342.85155851775386"><g><svg></svg></g><g><svg viewBox="0 0 342.85155851775386 342.85155851775386" height="342.85155851775386" width="342.85155851775386"><g><path d="M0 171.426c0-94.676 76.75-171.426 171.426-171.426 94.676 0 171.426 76.75 171.426 171.426 0 94.676-76.75 171.426-171.426 171.426-94.676 0-171.426-76.75-171.426-171.426zM171.426 338.59c92.322 0 167.164-74.842 167.164-167.164 0-92.322-74.842-167.164-167.164-167.164-92.322 0-167.164 74.842-167.164 167.164 0 92.322 74.842 167.164 167.164 167.164z" data-fill-palette-color="tertiary" fill="#562c2c" stroke="transparent"></path><ellipse rx="164.56874808852186" ry="164.56874808852186" cx="171.42577925887693" cy="171.42577925887693" fill="#562c2c" stroke="transparent" stroke-width="0" fill-opacity="1" data-fill-palette-color="tertiary"></ellipse></g><g transform="matrix(1,0,0,1,64.84655864529837,109.55925422886497)"><svg viewBox="0 0 213.1584412271571 123.73305006002391" height="123.73305006002391" width="213.1584412271571"><g><svg viewBox="0 0 213.1584412271571 123.73305006002391" height="123.73305006002391" width="213.1584412271571"><g><svg viewBox="0 0 213.1584412271571 123.73305006002391" height="123.73305006002391" width="213.1584412271571"><g transform="matrix(1,0,0,1,0,76.47198886087465)"><svg viewBox="0 0 213.1584412271571 47.26106119914926" height="47.26106119914926" width="213.1584412271571"><g id="textblocktransform"><svg viewBox="0 0 213.1584412271571 47.26106119914926" height="47.26106119914926" width="213.1584412271571" id="textblock"><g><svg viewBox="0 0 213.1584412271571 47.26106119914926" height="47.26106119914926" width="213.1584412271571"><g transform="matrix(1,0,0,1,0,0)"><svg width="213.1584412271571" viewBox="2.69 -36.89 225.93 50.1" height="47.26106119914926" data-palette-color="#ffffff"><path d="M13.99-10.18L13.99-34.69 18.14-34.69 18.14-10.4Q18.14-7.69 17.65-5.88 17.16-4.08 15.75-2.59L15.75-2.59Q12.89 0.42 7.47 0.42L7.47 0.42Q5.03 0.42 2.69-0.17L2.69-0.17 3.34-3.64Q4.98-3.25 6.79-3.25L6.79-3.25Q8.28-3.25 9.45-3.55 10.62-3.86 11.36-4.28 12.11-4.71 12.65-5.41 13.18-6.1 13.43-6.65 13.67-7.2 13.82-8 13.96-8.79 13.98-9.18 13.99-9.57 13.99-10.18L13.99-10.18ZM38.18-24.58L38.18-24.58Q43.19-24.58 46.42-21.39 49.66-18.19 49.66-12.55L49.66-12.55Q49.66-6.57 46.35-3.04 43.04 0.49 37.79 0.49L37.79 0.49Q32.79 0.49 29.61-2.82 26.44-6.13 26.44-11.79L26.44-11.79Q26.44-17.63 29.67-21.11 32.91-24.58 38.18-24.58ZM37.84-21.17L37.84-21.17Q34.84-21.17 32.59-18.85 30.34-16.53 30.34-12.48L30.34-12.48Q30.34-8.45 32.54-5.69 34.74-2.93 38.23-2.93L38.23-2.93Q41.45-2.93 43.6-5.37 45.75-7.81 45.75-11.74L45.75-11.74Q45.75-13.99 45.05-15.82 44.36-17.65 43.22-18.8 42.09-19.95 40.7-20.56 39.3-21.17 37.84-21.17ZM57.47 0L57.47-36.89 61.47-36.89 61.47-22.97Q64.62-24.61 67.91-24.61L67.91-24.61Q69.38-24.61 70.8-24.26 72.21-23.9 73.64-23.01 75.07-22.12 76.14-20.78 77.22-19.43 77.89-17.26 78.56-15.09 78.56-12.35L78.56-12.35Q78.56-6.4 75.4-2.95 72.24 0.49 67.21 0.49L67.21 0.49Q63.91 0.49 60.74-1.12L60.74-1.12 60.25 0 57.47 0ZM66.55-21.29L66.55-21.29Q63.94-21.29 61.47-20L61.47-20 61.47-3.78Q64.08-2.66 66.62-2.66L66.62-2.66Q67.74-2.66 68.79-2.91 69.84-3.15 70.93-3.8 72.02-4.44 72.82-5.42 73.63-6.4 74.14-8.01 74.65-9.62 74.65-11.65L74.65-11.65Q74.65-13.94 74.12-15.71 73.58-17.48 72.75-18.51 71.92-19.53 70.8-20.19 69.67-20.85 68.65-21.07 67.62-21.29 66.55-21.29ZM95.7-10.18L95.7-34.69 99.85-34.69 99.85-10.4Q99.85-7.69 99.36-5.88 98.87-4.08 97.45-2.59L97.45-2.59Q94.6 0.42 89.18 0.42L89.18 0.42Q86.74 0.42 84.39-0.17L84.39-0.17 85.05-3.64Q86.69-3.25 88.49-3.25L88.49-3.25Q89.98-3.25 91.15-3.55 92.33-3.86 93.07-4.28 93.82-4.71 94.35-5.41 94.89-6.1 95.13-6.65 95.38-7.2 95.52-8 95.67-8.79 95.68-9.18 95.7-9.57 95.7-10.18L95.7-10.18ZM125.31-4.98L125.31-24.12 129.31-24.12 129.31 0 126.5 0 125.65-2.03Q121.03 0.49 117.13 0.49L117.13 0.49Q115.15 0.49 113.69-0.13 112.22-0.76 111.42-1.68 110.61-2.61 110.12-4.04 109.63-5.47 109.5-6.76 109.37-8.06 109.37-9.72L109.37-9.72 109.37-24.12 113.37-24.12 113.37-9.42Q113.37-3.1 118.86-3.1L118.86-3.1Q121.69-3.1 125.31-4.98L125.31-4.98ZM138.1 0L138.1-24.12 140.91-24.12 141.78-22.07Q146.45-24.61 150.28-24.61L150.28-24.61Q152.26-24.61 153.72-23.99 155.19-23.36 155.99-22.42 156.8-21.48 157.28-20.06 157.75-18.63 157.89-17.33 158.02-16.04 158.02-14.38L158.02-14.38 158.02 0 154.02 0 154.02-14.65Q154.02-21 148.55-21L148.55-21Q145.72-21 142.1-19.12L142.1-19.12 142.1 0 138.1 0ZM176.74-24.61L176.74-24.61Q179.62-24.61 183.41-22.68L183.41-22.68 183.92-24.12 186.73-24.12 186.73 1.51Q186.73 2.25 186.68 2.93 186.63 3.61 186.39 4.86 186.14 6.1 185.7 7.13 185.26 8.15 184.37 9.34 183.48 10.52 182.27 11.33 181.06 12.13 179.15 12.67 177.23 13.21 174.86 13.21L174.86 13.21Q171.13 13.21 167.39 11.65L167.39 11.65 168.52 8.74Q171.52 9.86 174.35 9.86L174.35 9.86Q182.72 9.86 182.72 0.61L182.72 0.61 182.72-1.17Q179.57 0.49 176.35 0.49L176.35 0.49Q174.79 0.49 173.3 0.09 171.81-0.32 170.38-1.26 168.95-2.2 167.89-3.6 166.83-5 166.18-7.17 165.54-9.33 165.54-11.99L165.54-11.99Q165.54-14.79 166.32-17.05 167.1-19.31 168.3-20.68 169.49-22.05 171.04-22.97 172.59-23.9 174.01-24.26 175.42-24.61 176.74-24.61ZM176.99-21.36L176.99-21.36Q173.59-21.36 171.52-18.92 169.44-16.48 169.44-12.45L169.44-12.45Q169.44-9.77 170.3-7.62 171.15-5.47 173.01-4.14 174.86-2.81 177.48-2.81L177.48-2.81Q180.14-2.81 182.72-4.2L182.72-4.2 182.72-20Q179.38-21.36 176.99-21.36ZM196 0L196-36.89 200.01-36.89 200.01 0 196 0ZM219.66-24.58L219.66-24.58Q221.42-24.58 222.82-24.16 224.22-23.73 225.15-23.07 226.08-22.41 226.75-21.35 227.42-20.29 227.78-19.3 228.13-18.31 228.32-16.92 228.52-15.53 228.57-14.5 228.62-13.48 228.62-12.08L228.62-12.08 228.62-10.18 212.04-10.18Q212.04-8.86 212.64-7.56 213.24-6.25 214.32-5.16 215.41-4.08 217.18-3.39 218.95-2.71 221.1-2.71L221.1-2.71Q223.64-2.71 226.59-3.59L226.59-3.59 227.3-0.85Q223.37 0.49 219.58 0.49L219.58 0.49Q216.92 0.49 214.86-0.22 212.8-0.93 211.54-2.06 210.28-3.2 209.48-4.79 208.67-6.37 208.37-7.95 208.06-9.52 208.06-11.28L208.06-11.28Q208.06-13.99 208.72-16.24 209.38-18.48 210.5-20.01 211.63-21.53 213.13-22.58 214.63-23.63 216.28-24.11 217.92-24.58 219.66-24.58ZM218.8-21.12L218.8-21.12Q216.65-21.12 215.1-19.93 213.55-18.75 212.85-16.99 212.14-15.23 212.14-13.21L212.14-13.21 224.74-13.21Q224.74-21.12 218.8-21.12Z" opacity="1" transform="matrix(1,0,0,1,0,0)" fill="#ffffff" class="wordmark-text-0" data-fill-palette-color="quaternary" id="text-0"></path></svg></g></svg></g></svg></g></svg></g><g transform="matrix(1,0,0,1,79.73164243069078,0)"><svg viewBox="0 0 53.69515636577555 65.31478657722428" height="65.31478657722428" width="53.69515636577555"><g><svg xmlns="http://www.w3.org/2000/svg" xmlns:xlink="http://www.w3.org/1999/xlink" version="1.1" x="0" y="0" viewBox="217.922 209.68462750633998 76.15700000000001 92.63737249366002" enable-background="new 206 206 100 100" xml:space="preserve" height="65.31478657722428" width="53.69515636577555" class="icon-icon-0" data-fill-palette-color="quaternary" id="icon-0"><g fill="#ffffff" data-fill-palette-color="quaternary"><path d="M293.31 243.883h-18.128c-0.316-1.714-1.671-3.067-3.385-3.384v-2.199c0-1.702-1.385-3.086-3.086-3.086-0.425 0-0.769 0.344-0.769 0.768s0.344 0.768 0.769 0.768c0.854 0 1.551 0.696 1.551 1.551v2.199c-1.715 0.316-3.068 1.67-3.385 3.384h-21.755c-0.316-1.714-1.67-3.068-3.384-3.384v-2.2c0-0.854 0.696-1.55 1.552-1.55 0.424 0 0.768-0.344 0.768-0.768 0-0.424-0.344-0.768-0.768-0.768-1.703 0-3.087 1.384-3.087 3.085v2.2c-1.714 0.316-3.068 1.67-3.384 3.384H218.69c-0.424 0-0.768 0.344-0.768 0.768v14.881c0 3.25 2.345 5.961 5.431 6.535v35.487c0 0.424 0.344 0.768 0.768 0.768h63.759c0.425 0 0.769-0.344 0.769-0.768v-35.487c3.085-0.574 5.429-3.283 5.43-6.532 0-0.001 0-0.002 0-0.003v-14.881C294.077 244.226 293.734 243.883 293.31 243.883zM271.026 241.963c0.001 0 0.003 0 0.004 0s0.003 0 0.004 0c1.213 0.002 2.239 0.813 2.57 1.92h-5.149C268.785 242.775 269.812 241.965 271.026 241.963zM240.97 241.963c1.215 0 2.243 0.812 2.575 1.92h-5.149C238.727 242.774 239.755 241.963 240.97 241.963zM287.112 300.787h-62.224v-34.607h21.766v4.344c0 0.001 0 0.003 0 0.004 0 5.153 4.192 9.346 9.346 9.346 5.154 0 9.346-4.192 9.346-9.346 0-0.001-0.001-0.003-0.001-0.004v-4.344h21.767V300.787zM263.81 270.53c-0.002 4.305-3.505 7.807-7.81 7.807-4.306 0-7.809-3.502-7.81-7.807 0-0.001 0-0.002 0-0.004v-8.107h15.619v8.107C263.81 270.528 263.81 270.529 263.81 270.53zM292.542 259.53c0 0.001 0 0.002 0 0.002 0 2.803-2.267 5.084-5.062 5.112h-22.136v-2.993c0-0.424-0.344-0.768-0.768-0.768h-17.155c-0.424 0-0.768 0.344-0.768 0.768v2.993h-22.135c-2.796-0.028-5.062-2.31-5.062-5.112v-14.114h73.085V259.53z" fill="#ffffff" data-fill-palette-color="quaternary"></path><path d="M256 266.903c-1.999 0-3.624 1.626-3.624 3.624s1.625 3.624 3.624 3.624 3.624-1.626 3.624-3.624S257.998 266.903 256 266.903zM256 272.615c-1.152 0-2.088-0.937-2.088-2.088s0.937-2.089 2.088-2.089 2.088 0.938 2.088 2.089S257.152 272.615 256 272.615z" fill="#ffffff" data-fill-palette-color="quaternary"></path><path d="M246.018 215.832c-0.052 0.049-0.104 0.095-0.154 0.146-0.755 0.794-1.156 1.835-1.129 2.926l0.106 5.872 0.056 12.071c0 0.003 0.001 0.006 0.001 0.01l0.004 0.417c0 0.006 0 0.013 0 0.02l0.033 1.31c0.022 0.89 0.386 1.715 1.026 2.324 0.603 0.573 1.383 0.886 2.206 0.886 0.028 0 0.056 0 0.084-0.001 0.946-0.025 1.785-0.465 2.36-1.142 0.102 0.13 0.211 0.256 0.333 0.373 0.626 0.595 1.439 0.92 2.299 0.92 0.029 0 0.058 0 0.087-0.001 0.893-0.022 1.723-0.391 2.338-1.038 0.061-0.064 0.116-0.131 0.171-0.199 0.09 0.11 0.185 0.218 0.29 0.318 0.625 0.595 1.439 0.92 2.298 0.92 0.029 0 0.059 0 0.087-0.001 0.894-0.022 1.724-0.391 2.339-1.039 0.061-0.063 0.115-0.131 0.171-0.198 0.09 0.11 0.185 0.217 0.29 0.317 0.625 0.595 1.438 0.92 2.299 0.92 0.028 0 0.058 0 0.087-0.001 0.893-0.022 1.723-0.391 2.338-1.038 0.612-0.644 0.938-1.487 0.918-2.375l0.001-1.705c0 0 0 0 0 0s0 0 0 0l-0.013-12.248c0-0.424-0.344-0.767-0.768-0.767h-0.001c-0.424 0-0.768 0.345-0.767 0.769l0.012 12.248-0.001 1.713c0 0.007 0 0.014 0 0.021 0.013 0.481-0.163 0.939-0.495 1.289s-0.781 0.549-1.264 0.561c-0.484 0.012-0.939-0.164-1.289-0.497s-0.549-0.781-0.561-1.264l-0.034-1.33-0.005-0.464v-0.029c0-0.001 0-0.002 0-0.003v-0.004c0-0.012-0.004-0.024-0.004-0.036-0.003-0.04-0.006-0.079-0.014-0.117-0.001-0.006-0.004-0.011-0.005-0.017-0.081-0.338-0.383-0.59-0.745-0.59l0 0c-0.002 0-0.003 0-0.005 0-0.001 0-0.002 0-0.003 0-0.021 0-0.041 0.005-0.062 0.007-0.03 0.002-0.061 0.003-0.09 0.01-0.023 0.005-0.046 0.014-0.069 0.021-0.024 0.008-0.05 0.014-0.073 0.024-0.025 0.01-0.048 0.025-0.071 0.039-0.02 0.011-0.04 0.02-0.059 0.032-0.024 0.017-0.045 0.037-0.067 0.056-0.016 0.013-0.032 0.024-0.046 0.039-0.021 0.022-0.04 0.047-0.06 0.072-0.011 0.014-0.023 0.027-0.033 0.042-0.02 0.028-0.034 0.058-0.049 0.088-0.007 0.014-0.016 0.027-0.021 0.042-0.015 0.034-0.023 0.069-0.033 0.104-0.003 0.014-0.009 0.026-0.012 0.04-0.008 0.038-0.01 0.078-0.012 0.118-0.001 0.012-0.004 0.023-0.004 0.035v0.004c0 0.001 0 0.002 0 0.004v0.036l-0.001 1.67c0 0.007 0 0.014 0 0.021 0.013 0.481-0.163 0.939-0.496 1.289-0.331 0.35-0.78 0.549-1.264 0.561-0.487 0.011-0.938-0.164-1.288-0.497s-0.549-0.781-0.562-1.263l-0.034-1.33-0.004-0.501c-0.001-0.022-0.006-0.043-0.008-0.065-0.003-0.029-0.004-0.059-0.01-0.086-0.002-0.012-0.007-0.022-0.01-0.034-0.086-0.33-0.383-0.575-0.74-0.575h0c-0.001 0-0.003 0-0.004 0-0.001 0-0.002 0-0.002 0-0.019 0-0.037 0.004-0.056 0.006-0.033 0.003-0.065 0.004-0.097 0.011-0.019 0.004-0.036 0.012-0.054 0.017-0.03 0.009-0.061 0.017-0.09 0.029-0.018 0.008-0.033 0.019-0.05 0.027-0.027 0.014-0.055 0.027-0.08 0.044-0.016 0.011-0.03 0.025-0.045 0.037-0.023 0.019-0.047 0.036-0.068 0.057-0.015 0.014-0.026 0.031-0.039 0.047-0.019 0.022-0.038 0.043-0.054 0.067-0.012 0.018-0.021 0.038-0.031 0.057-0.013 0.024-0.028 0.048-0.04 0.074-0.009 0.021-0.014 0.045-0.021 0.067-0.008 0.025-0.018 0.05-0.023 0.077-0.005 0.025-0.005 0.052-0.008 0.078-0.002 0.024-0.007 0.048-0.007 0.073l-0.001 1.714c0 0.007 0 0.014 0 0.021 0.012 0.481-0.164 0.939-0.496 1.289-0.333 0.35-0.781 0.549-1.264 0.561-0.481 0.011-0.939-0.164-1.289-0.497s-0.549-0.781-0.561-1.263l-0.034-1.33-0.004-0.469v-0.092c0-0.424-0.343-0.768-0.767-0.769 0 0 0 0 0 0-0.424 0-0.768 0.343-0.768 0.767v0.072c0 0.001 0 0.002 0 0.003v0.031l-0.001 1.575c0 0.007 0 0.013 0 0.02 0.024 0.968-0.719 1.776-1.655 1.801-0.443 0.013-0.866-0.153-1.192-0.463-0.342-0.325-0.537-0.769-0.549-1.249l-0.033-1.304-0.004-0.492c0-0.002 0-0.004 0-0.007l-0.056-12.003-0.106-5.888c-0.018-0.686 0.233-1.337 0.706-1.834 0.473-0.497 1.111-0.78 1.797-0.797 0.005 0 0.009-0.001 0.014-0.001l14.36-0.36 2.841 2.491c1.813 1.61 4.688 4.724 4.688 6.226v7.314c0 0.424 0.344 0.768 0.769 0.768 0.424 0 0.768-0.344 0.768-0.768v-7.314c0-2.674-4.672-6.901-5.208-7.377l-1.896-1.662c0.333-0.16 0.639-0.378 0.901-0.654 0.569-0.599 0.871-1.383 0.851-2.209-0.041-1.689-1.468-3.066-3.17-3.015l-16.183 0.405c-0.826 0.021-1.595 0.361-2.164 0.96-0.57 0.599-0.872 1.384-0.851 2.209C244.519 214.346 245.131 215.303 246.018 215.832zM246.457 212.101c0.287-0.302 0.674-0.473 1.09-0.484l16.183-0.405 0.041 0c0.837 0 1.534 0.681 1.555 1.518 0.011 0.416-0.142 0.812-0.428 1.113-0.287 0.301-0.674 0.473-1.09 0.483l-16.184 0.405-0.041 0c-0.837 0-1.535-0.681-1.555-1.519C246.018 212.798 246.17 212.403 246.457 212.101z" fill="#ffffff" data-fill-palette-color="quaternary"></path><path d="M230.018 296.445c0 0.424 0.344 0.768 0.768 0.768h50.429c0.424 0 0.768-0.344 0.768-0.768s-0.344-0.768-0.768-0.768h-50.429C230.362 295.677 230.018 296.021 230.018 296.445z" fill="#ffffff" data-fill-palette-color="quaternary"></path></g></svg></g></svg></g><g></g></svg></g></svg></g></svg></g></svg></g><defs></defs></svg><rect width="342.85155851775386" height="342.85155851775386" fill="none" stroke="none" visibility="hidden"></rect></g></svg></g></svg>